<?xml version="1.0" encoding="utf-8"?>
<!-- Generator: Adobe Illustrator 18.0.0, SVG Export Plug-In . SVG Version: 6.00 Build 0)  -->
<!DOCTYPE svg PUBLIC "-//W3C//DTD SVG 1.1//EN" "http://www.w3.org/Graphics/SVG/1.1/DTD/svg11.dtd">
<svg version="1.1" id="illustration" xmlns="http://www.w3.org/2000/svg" xmlns:xlink="http://www.w3.org/1999/xlink" x="0px"
	 y="0px" viewBox="0 0 71.7 65" enable-background="new 0 0 71.7 65" xml:space="preserve">
<g>
	<path fill="#FBB040" d="M59.3,37.6c-3.1-3.7-7.6-5.6-12.1-6.6c-4.7-1-9.6-1.1-14.4-0.3c-0.9,0.1-1.8,0.2-2.7,0.4
		c-1.9,0.3-3.8,1.1-5.5,2c-1.2,0.5-2.4,1.1-3.6,1.7c-1.9,1-3.6,2.4-5,4c-1.5,1.5-2.7,3.1-3.5,5c-1.7,4.3,1.2,8.2,4.8,10.3
		c4,2.4,9.4,3.5,14.2,4.2c1.2,0.2,2.5,0.4,3.8,0.5c9.2,0.9,21.4-0.4,26-9.5C63,45.5,61.9,40.7,59.3,37.6z M50.6,51
		c2.1-1.8,3.4-4.3,3.2-6.8c0.2-0.5,0.4-1,0.5-1.5c0.5,0.5,0.9,0.9,1.3,1.5C55.5,47,53.4,49.3,50.6,51z M28.9,47.4
		c0.3-0.1,0.6-0.2,0.9-0.3c0.4,0.2,0.8,0.3,1.2,0.5c0.9,0.4,1.6-0.9,0.7-1.3c0,0,0,0,0,0c0.1,0,0.1-0.1,0.2-0.1
		c1.1-0.2,2.2-0.3,3.2-0.5c2.9-0.5,6.1-1.9,9.1-1.6c-1.2,0.8-2.6,1.4-4,1.9c0,0,0,0,0,0c-1.4,0.4-2.7,0.7-4.1,1
		c-0.5,0.1-1.1,0.2-1.6,0.3c-1.5,0.2-3.1,0.4-4.6,0.5c-0.9,0-2,0.2-3,0.1c0,0,0.1-0.1,0.1-0.1C27.7,47.7,28.3,47.5,28.9,47.4z
		 M34.7,43.6c-1,0.4-2,0.8-2.9,1.2c-0.6,0.1-1.3,0.2-1.9,0.4C31.1,44.4,32.9,43.9,34.7,43.6C34.7,43.6,34.7,43.6,34.7,43.6z
		 M27.6,45.1c-0.2,0.2-0.2,0.6-0.1,0.8c-0.4,0.2-0.7,0.4-1.1,0.6c-1.2,0.3-2.4,0.7-3.4,1.4c0,0-0.1,0-0.1,0
		c-0.1-0.1-0.3-0.1-0.4-0.2c1.2-2.4,4.8-3.5,8-4.3C29.3,43.8,28.3,44.3,27.6,45.1z M48.2,42.5c-0.8-2-6.8-1.3-7.8-1.1
		c-2.1,0.2-4.2,0.6-6.2,1.1c0.1,0,0.1,0,0.2-0.1c3.7-1.4,8.1-2.5,12-2.4c1,0,2.1,0.2,2.9,1C49.5,41.2,48.9,41.9,48.2,42.5z
		 M41.8,38.9c-0.8,0.2-1.5,0.3-2.1,0.5c-3.4,0.8-6.7,1.9-10,2.9c-2.8,0.8-7,1.9-8.5,4.8c-0.9-0.6-0.8-1.4-0.3-2.2
		c1.1-0.9,2.9-1.7,3.7-2.1c3.3-1.4,6.9-2.4,10.4-3.2C37.3,39,39.5,38.8,41.8,38.9z M36.1,49.6c-1,0-2,0-2.9,0
		c1.6-0.3,3.2-0.8,4.8-1.3c0.4-0.1,0.7-0.1,1.1-0.2c2.1-0.4,4.7-0.9,6.6-2c0.8-0.4,1.5-0.8,2.1-1.3c0.2-0.1,0.3-0.4,0.3-0.6
		c0.8-0.5,1.6-1.2,2-1.9c0.2,0.8-0.1,1.7-1.1,2.7c-2.1,2.2-5.5,3.2-8.4,3.9C39.1,49.4,37.5,49.5,36.1,49.6z M23.4,38.1
		c2.4-0.6,4.9-0.9,7.5-0.8c-6.9,1.4-13.1,4-13.3,8.1c-0.2-0.6-0.2-1.2-0.1-1.8C18.7,41.3,20.9,39.5,23.4,38.1z M16.3,46.2
		c1.3,3.4,5.9,5.2,9,5.9c5.7,1.3,12.1,0.4,17.6-1.2c2.7-0.8,6.8-2.3,9.3-4.7c-1,3.8-5.4,5.7-8.8,6.7c-6,1.7-13.3,2-19.4,0.7
		c-1.2-0.3-2.5-0.7-3.7-1.2c-1.9-1.1-3.5-2.9-4.3-4.9C16.1,47,16.2,46.6,16.3,46.2z M52.4,39.4c0.1,0.1,0.2,0.3,0.3,0.5
		c-0.8-0.4-1.5-0.8-2.2-1.1c-0.2-0.1-0.5-0.2-0.7-0.3c-1-0.6-2-1.2-3.2-1.6c1.3,0.1,2.4,0.3,3.4,0.7C50.9,38.2,51.7,38.8,52.4,39.4z
		 M16,43.3c-0.2,0.2-0.3,0.5-0.4,0.7c0-0.6,0.1-1.2,0.3-1.8c0.2-0.2,0.4-0.4,0.6-0.6C16.2,42.2,16,42.7,16,43.3z M52.1,54.5
		c-3.8,2.8-9,3.2-13.5,3.2c-3.5,0-6.9-0.5-10.3-1.3c1.4,0.1,2.9,0.1,4.4,0c4.3,0.1,8.6-0.4,12.6-1.7c1.4-0.4,2.8-0.8,4.2-1.4
		c2-0.9,4.5-2,6.1-3.7C55,51.5,53.8,53.3,52.1,54.5z M45.2,34c2.4,0.5,4.7,1.4,6.5,2.9C49.7,35.7,47.5,34.7,45.2,34z M40.4,34.1
		c1.9,0.4,3.8,0.9,5.6,1.6c-1.1,0-2.5,0-4,0.1c-1-0.2-2-0.4-2.9-0.5c-2.7-0.4-5.5-0.6-8.3-0.4c1.9-0.6,4.1-1,6.3-1.2
		C38.2,33.7,39.3,33.9,40.4,34.1z M26.7,34.8c-0.6,0.3-1.3,0.6-2.1,1c-0.5,0.2-1.1,0.3-1.6,0.5c-0.8,0.3-1.6,0.7-2.4,1.1
		c-0.8,0.3-1.6,0.7-2.3,1.1c2.6-2.3,6.3-3.5,9.5-4.3c0.2-0.1,0.5-0.1,0.7-0.1C27.9,34.4,27.3,34.6,26.7,34.8z M57.9,51.6
		c-1.3,1.4-2.7,2.5-4.3,3.3c2.7-2.1,4.4-5.2,4-9.4c-0.1-1.2-0.4-2.3-0.9-3.4c-0.6-3.2-3-5.8-5.7-7.4c-4.1-2.4-9.2-3.1-14.1-2.6
		c-1.3-0.2-2.6-0.2-4-0.2c1.5-0.2,3-0.4,4.6-0.5c0.7,0.1,1.3,0.3,2,0.4c0.2,0,0.3-0.2,0.2-0.4c3.4,0.1,6.9,0.6,10,1.6
		c3.8,1.2,7.3,3.3,9.5,6.7C61.7,43.7,60.9,48.3,57.9,51.6z"/>
	<path fill="#A2DDF4" d="M35.2,17.3c-0.2-3.1-0.9-9.2-5.1-9.2c-0.7-0.9-1.7-1.4-2.8-0.9c-4.4,1.9-3.6,10.7-3.1,14.3
		c0.1,0.6,0.2,1.2,0.3,1.8c0.1,1,0.2,2.1,0.4,3.1c-1.8-2.7-3.5-5.3-5.8-7.6c-3.2-3.1-9.8-5.4-12.9-0.9c-2.8,4.1-0.7,9,3,11.7
		c1.2,0.9,2.5,1.6,3.8,2.3c2.6,2.1,5.9,3.5,9.1,4.2c0.1,0,0.3,0,0.4,0c0.4,0.2,0.8,0.4,1.1,0.6c1.4,1,2.7,1.9,4,2.9
		c0.7,0.5,1.5-0.6,0.9-1.2c-0.4-0.3-0.7-0.6-1.1-0.9c0.1,0,0.1,0,0.2,0c0.4,0.4,0.8,0.9,1.3,1.3c0.6,0.6,1.7-0.2,1.2-0.9
		c-0.1-0.1-0.2-0.3-0.3-0.4c0.2-0.1,0.3-0.3,0.3-0.6c0.2,0,0.3-0.1,0.4-0.2c0.5,0.4,1,0.8,1.5,1.1c0.2,0.1,0.5,0,0.5-0.3
		c0,0,0,0,0,0c0.2-0.1,0.3-0.3,0.4-0.5c1-3.9,2.1-7.8,2.4-11.8C35.6,22.6,35.3,19.9,35.2,17.3z M15.4,21.4c0.5,0.4,1,0.8,1.5,1.2
		c-0.3,0.2-0.4,0.5-0.3,0.8c0,0.1,0.1,0.1,0.1,0.2c-0.1,0.3-0.2,0.6,0.1,0.9c0.2,0.1,0.3,0.3,0.5,0.4c1.1,2.5,2.5,4.9,4.1,7.1
		c0.5,0.6,1,1.3,1.5,2c-0.4-0.3-0.8-0.5-1.2-0.8c-2.5-4.6-6.5-8.2-9.4-12.5c-0.6-0.8-1.8-0.1-1.3,0.8c0.6,1.1,1.2,2.3,2,3.6
		c-1-0.8-2.2-1.4-3.4-1.4c-0.4-1.8-0.2-3.5,0.9-4.9C11.8,16.8,14.4,20.6,15.4,21.4z M10,25.2c1.3,0.3,2.4,1.3,3.3,2.4
		c-1-0.6-2.1-1.1-3.1-1.8C10.2,25.6,10.1,25.4,10,25.2z M12.9,29.6c-0.3-0.3-0.6-0.6-0.9-1c1.4,0.9,2.8,1.7,4.2,2.7
		c0.1,0.1,0.3,0.2,0.4,0.3c0.1,0.1,0.2,0.2,0.3,0.4c-0.3-0.1-0.6-0.3-1-0.4c-0.4-0.2-0.8-0.3-1.2-0.5C14.1,30.6,13.5,30.1,12.9,29.6
		z M29.2,23.9c-0.1-0.5-0.2-1-0.4-1.6c-0.1-1.5-0.2-3.1-0.2-4.6c0.7,2.3,0.9,4.9,1.1,6.3c0.2,1.7,0.5,3.8,0.5,5.7
		C29.8,27.7,29.5,25.6,29.2,23.9z M27.7,8.5c0.3-0.2,0.5-0.1,0.8,0c-1.4,0.7-2.3,2.2-2.9,4c-0.1,0.1-0.2,0.1-0.3,0.3
		C25.7,10.9,26.4,9.3,27.7,8.5z M19.8,21.2c1.9,2,3.3,4.5,4.9,6.7c0,0,0,0,0,0.1c-1.4-1.8-3.1-3.4-4.7-4.9c-2.1-1.9-4.3-3.6-6.3-5.5
		c-0.3-0.3-0.6-0.5-0.9-0.6c0.1,0,0.3,0,0.4,0C15.8,17.4,18,19.2,19.8,21.2z M6.6,20.8c0.4-2.1,1.8-3.3,3.6-3.7
		c-0.3,0.1-0.5,0.3-0.8,0.5C8,18.6,8,20.9,8,22.4c0,0.5,0,0.9,0.1,1.3c-0.1,0-0.2,0-0.2,0.1C7.4,24,7.1,24.5,7.4,25
		c0.4,0.7,1,1.3,1.6,1.7c0.2,0.4,0.4,0.9,0.7,1.3C7.5,26.2,6,23.8,6.6,20.8z M28.7,12.7c0.1-0.2,0.2-0.5,0.3-0.7
		c1.4,1.7,2.3,4.3,2.8,6.7C31.3,16.6,30.4,14.5,28.7,12.7z M33.3,18.7c0.1-3-0.2-5.8-1.9-8.1c-0.1-0.2-0.2-0.5-0.3-0.7
		c2.8,1.1,2.6,8.2,2.7,10.5c0,0.3,0,0.5,0,0.8C33.7,20.3,33.5,19.5,33.3,18.7z"/>
	<path d="M68.9,43c-0.8-0.4-1.6-0.5-2.4-0.6c-0.1-0.1-0.2-0.2-0.4-0.2c-2.9,0-5.8,0-8.7,0c-0.9,0-0.8,1.3,0,1.3c0.5,0,1,0.1,1.4,0.2
		c0,0.1,0.1,0.2,0.1,0.2c-0.2,0.4,0.2,0.9,0.6,0.7c0.8-0.3,1.5-0.5,2.3-0.6c0.3,0,0.7,0,1.1,0c0.2,0,0.3,0,0.5-0.1
		c1.8-0.1,3.5,0.1,5.3,0.2C69.6,44.3,69.6,43.3,68.9,43z"/>
	<path d="M47.3,35.5c0-0.1,0.1-0.3,0.1-0.4c0.1-0.4-0.2-0.7-0.5-0.8c-0.1-0.1-0.1-0.3-0.2-0.4c-0.1-0.1-0.2-0.2-0.4-0.3
		c0-0.1,0.1-0.1,0-0.2c-0.3-0.4-0.5-0.6-0.8-0.8c0-0.4,0-0.7-0.1-1.1c-0.1-0.6-0.8-0.8-1.1-0.3c-1.9,2.9-1.5,6.6-1.4,10
		c-0.1,0.4-0.2,0.9-0.3,1.3c-0.6,2.7-0.8,5.7-0.9,8.6c-0.2,0.2-0.4,0.5-0.6,0.7c-0.4,0.5,0,1.1,0.5,1c0,0.5,0,0.9,0,1.4
		c0,0.4,0.3,0.6,0.5,0.6c0,0.2,0.1,0.4,0.1,0.7c0,0,0,0.1,0,0.1c-0.1,0.7,1,0.8,1.2,0.2c1.1-3.9,2.5-7.8,3.4-11.8
		C47.3,41.4,48,38.2,47.3,35.5z"/>
	<path d="M34.1,40.3c0-0.8-1-0.8-1.3-0.2c-0.2,0.7-0.5,1.4-0.7,2.2c0,0-0.1,0-0.1,0c0-0.9,0.1-1.8,0.1-2.7c0-0.8-1.2-0.8-1.2,0
		c0,1.7-0.1,3.4-0.2,5.1c-0.2,0.5-0.4,1-0.6,1.5c0.1-2.3,0.4-4.6,0.4-6.6c0-0.5-0.8-0.5-0.8,0c-0.1,3.3-0.9,7.1-0.6,10.6
		c-0.3,2.1-0.2,4.1,0.6,5.7c0.1,0.3,0.4,0.3,0.7,0.2c0.3,0.3,1,0.3,1-0.3c0.1-0.6,0.2-1.1,0.3-1.6c0.2,0.4,0.3,0.8,0.6,1.1
		c0.3,0.5,1.2,0.3,1.2-0.3c0-3,0.3-5.9,0-8.8C33.8,44.2,34,42.3,34.1,40.3z"/>
	<path d="M20.8,52.4c-0.3,0-0.5-0.2-0.7-0.4c0.3-4.8,1.2-9.5,1.3-14.3c0-0.7-1-0.8-1.2-0.2c0,0.1-0.1,0.2-0.1,0.3
		c-0.3,0-0.6,0.2-0.6,0.6c0,0.4,0,0.9-0.1,1.3c-0.7,2.5-1.2,5-1.3,7.6c0,0.8,0,2,0.1,3.2c0,0.3,0,0.5-0.1,0.7
		c-1.8-4,1.9-9.3,0.2-13.6c-0.2-0.4-0.9-0.3-0.7,0.2c1.7,5.2-3.5,11,0.6,15.6c0.1,0.1,0.3,0.2,0.5,0.2c0,0,0,0.1,0,0.1
		c0,0.8,1.2,0.8,1.2,0c0-0.1,0-0.1,0-0.2c0.2,0.1,0.4,0.1,0.7,0.1C21.5,53.5,21.5,52.4,20.8,52.4z"/>
</g>
</svg>
