<?xml version="1.0" encoding="utf-8"?>
<!-- Generator: Adobe Illustrator 18.0.0, SVG Export Plug-In . SVG Version: 6.00 Build 0)  -->
<!DOCTYPE svg PUBLIC "-//W3C//DTD SVG 1.1//EN" "http://www.w3.org/Graphics/SVG/1.1/DTD/svg11.dtd">
<svg version="1.1" id="illustration" xmlns="http://www.w3.org/2000/svg" xmlns:xlink="http://www.w3.org/1999/xlink" x="0px"
	 y="0px" viewBox="0 0 111.5 72" enable-background="new 0 0 111.5 72" xml:space="preserve">
<g>
	<path fill="#AAD04D" d="M38,48.9c-3.5-3-7.7-4.9-11.9-6.6c0.8-1.6,1.7-3.4,1.5-5.2c-0.5-4.8-6.7,0-9.7,2.6
		c-0.8-0.2-1.5-0.4-2.3-0.6c-2.4-0.6-4.5-1.9-6.9-2.3c-1.2-0.2-2,1.1-1.9,2.1c0.2,2.4,1.3,5.1,1.9,7.5c0.2,0.7,0.3,1.3,0.5,2
		c-0.9,1-1.7,2.1-2.6,3.1c-1.6,1.8-3.2,3.7-4.5,5.8c-0.2,0.2-0.3,0.3-0.5,0.5c-0.2,0.2-0.2,0.4-0.1,0.6c-0.6,1-1,2.1-1.3,3.3
		c-0.1,0.3,0,0.7,0.3,0.8c0,0.3,0.3,0.7,0.7,0.6c0,0,0.1,0,0.1-0.1c0,0.5,0.7,0.8,1,0.3c0.1-0.2,0.2-0.3,0.3-0.5c0,0,0,0,0,0
		c0.1,0,0.1-0.1,0.2-0.1c1-0.1,1.9-0.4,2.9-0.8c-0.1,0.1-0.1,0.1-0.2,0.2c-0.1,0-0.3,0.1-0.4,0.1c-0.4,0.1-0.5,0.4-0.5,0.7
		c-0.1,0.1-0.2,0.2-0.3,0.3c-0.5,0.5-0.1,1.3,0.6,1.2c1.5-0.3,2.9-0.7,4.4-1.1c0.4,1.6,0.8,3.2,1.4,4.7c-0.1,1.1-0.2,2.2-0.2,3.1
		c0.1,1,1.3,1,1.5,0.1c0.1-0.3,0.1-0.6,0.2-0.9c0.4,0,0.8-0.2,0.8-0.7c0-0.7,0-1.4,0-2.1c0.3-0.3,0.5-0.7,0.7-1.2
		c0.2-0.1,0.4-0.4,0.3-0.6c0-0.1,0-0.1,0-0.2c0.9-1.5,1.5-3.2,1.9-4.8c0.3-0.6,0.6-1.2,0.9-1.8c1.8-0.5,3.6-0.9,5.4-1.4
		c4.1-1.1,8.8-2,12.5-4.4c1.1-0.4,2-1,2.7-1.9c0.1-0.1,0.1-0.3,0.1-0.5c0.3-0.3,0.6-0.7,0.9-1.1C38.2,49.5,38.2,49.1,38,48.9z
		 M24.2,36.9c1.9-1.1,2,0.3,1.7,1.7c-0.2-0.1-0.4-0.2-0.6-0.1c-0.6,0.2-1.3,0.4-1.8,0.7c0-0.5-0.5-0.9-1.1-0.7
		c-0.5,0.2-1.1,0.5-1.6,0.8C21.9,38.4,23.1,37.6,24.2,36.9z M21.6,49.6c0.4-0.5,0.7-1,1-1.6c2.1,1,4.3,1.9,6.5,2.6c0,0,0,0,0,0
		c-1.7,0.5-3.4,1-5.1,1.4c-1.3-0.1-2.6-0.1-3.9,0C20.6,51.2,21.1,50.4,21.6,49.6z M18.8,50.3c-0.1-0.3-0.3-0.6-0.4-0.8
		c0.6-0.8,1.2-1.7,1.8-2.5c0.1,0,0.2,0.1,0.3,0.1C19.9,48.1,19.4,49.2,18.8,50.3z M22.9,41.1c0.5-0.3,1.1-0.6,1.7-0.8
		c-0.1,0.2-0.2,0.4-0.3,0.6c-0.2-0.1-0.4-0.1-0.6,0c-0.1,0.1-0.3,0.2-0.4,0.3C23.1,41.2,23,41.1,22.9,41.1z M20.4,42.8
		c0.3-0.3,0.7-0.5,1-0.8c0.1,0,0.3,0.1,0.4,0.1c-1,0.7-2,1.5-2.9,2.3c-0.1,0-0.1,0-0.2,0C19.3,44,19.8,43.4,20.4,42.8z M9,53.7
		c-0.5,0.5-1,0.9-1.5,1.4c-0.1,0.1-0.3,0.2-0.4,0.3c-0.2-0.1-0.4-0.2-0.6,0.1C6.2,55.7,6,56,5.8,56.3c-0.3,0.2-0.7,0.4-1,0.6
		c0.1-0.1,0.2-0.3,0.2-0.4c0.6-0.4,1.2-0.9,1.8-1.3C7.5,54.7,8.2,54,9,53.5C9,53.6,9,53.6,9,53.7z M9.4,52.1c0,0.1-0.1,0.2-0.1,0.4
		c-0.2,0.1-0.3,0.2-0.5,0.3c-0.7,0.5-1.5,1-2.3,1.5c0.4-0.5,0.8-1,1.2-1.5c0.2-0.2,0.6-0.8,1-1.5C8.9,51.2,9,51.1,9.1,51
		c0,0.4,0.2,0.7,0.6,0.8C9.5,51.9,9.4,52,9.4,52.1z M11.2,44.3c0.1,0.5,0.1,1.1,0.2,1.6c-0.1,0.1-0.3,0.3-0.4,0.4c0,0,0,0,0,0
		c-0.2-1.2-0.4-2.4-0.7-3.6c0.3,0.2,0.5,0.4,0.8,0.5C11.1,43.7,11.1,44,11.2,44.3z M10.5,39.7c0,0.2,0,0.4,0.1,0.6
		c-0.5-0.1-1.1-0.1-1.7,0c-0.1,0-0.1,0-0.2,0.1c-0.1-0.3-0.2-0.7-0.3-1c-0.4-1.4,2-0.6,2.8-0.3C10.8,39.1,10.5,39.3,10.5,39.7z
		 M12.2,40.9c-0.1-0.4-0.2-0.9-0.2-1.3c0-0.1-0.1-0.2-0.2-0.3c1.7,0.6,3.3,1.1,5,1.5c-0.1,0.1-0.2,0.2-0.3,0.3
		c-0.6,0.6-1.2,1.1-1.8,1.7c-0.4-0.2-0.9-0.4-1.3-0.5C13.1,41.7,12.7,41.3,12.2,40.9z M17.9,52c0,0.1-0.1,0.2-0.1,0.2
		c-0.1,0-0.1,0-0.2,0c-0.1,0-0.2-0.1-0.2-0.2c0.1-0.3,0.2-0.6,0.2-0.8C17.7,51.5,17.8,51.7,17.9,52z M15.5,50.4
		c0.3-0.4,0.7-0.9,1-1.3c0,0.1,0.1,0.1,0.1,0.2C16.3,49.8,15.9,50.2,15.5,50.4C15.5,50.5,15.5,50.5,15.5,50.4z M21,56.4
		c-1.2,0.3-2.4,0.6-3.6,0.9c0.2-0.3,0.4-0.7,0.5-1c3.7,0,7.2-1.2,10.6-2.5c0.5,0,1,0,1.5,0C27.2,55,23.9,55.6,21,56.4z M33.9,51.9
		c-0.9,0.4-2.1,0.5-3.2,0.5c0-0.2-0.1-0.3-0.3-0.4c0.7-0.2,1.3-0.4,2-0.7c0.9-0.3,0.6-1.7-0.3-1.5c-0.7,0.2-1.5,0.4-2.2,0.6
		c0.3-0.3,0.3-0.7,0-1c-0.9-1-1.9-1.7-3-2.3c3.1,0.7,6,1.8,8.3,3.8C34.8,51.3,34.4,51.6,33.9,51.9z M36.3,49.8
		c-3.2-2.8-7.4-4-11.8-4.7c0.3-0.5,0.6-1,0.9-1.5c3.9,1.6,7.8,3.3,11.1,5.9C36.4,49.6,36.3,49.7,36.3,49.8z"/>
	<path fill="#F7EB88" d="M109.8,0.1c-4.5-0.4-8.8,0.6-13,2.1c-3.3,0.7-6.6,1.4-9.9,2.2c-2.3,0.6-4.6,1.2-6.9,1.9
		C68,8.4,55.4,10.2,44.2,15.4c-11.6,5.4-23.1,11.5-32.5,20.4c-0.3,0.3,0.1,0.7,0.4,0.4c9.4-8.8,20.9-14.7,32.5-20.1
		c8.8-4.1,18.4-5.9,28.1-7.6c-0.8,0.2-1.5,0.5-2.3,0.7C50.6,15,31.3,22.2,14.8,34.8c-0.4,0.3,0,1.1,0.5,0.9c0,0.4,0.5,0.8,1,0.6
		c0.4-0.2,0.8-0.3,1.1-0.5c-0.5,0.4-1,0.8-1.5,1.3c-0.6,0.6,0.1,1.5,0.8,1.2c0.7-0.3,1.3-0.7,1.9-1.1c2.4-0.3,4.6-1.5,6.7-2.8
		c0.2,0.2,0.4,0.3,0.7,0.2c0.7-0.3,1.3-0.5,2-0.8c-0.3,0.4,0.1,1,0.6,0.9c0.2,0,0.3-0.1,0.5-0.1c-0.2,0.1-0.4,0.2-0.6,0.3
		c-0.7,0.3-0.2,1.2,0.4,1.1c0.1,0,0.3,0,0.4-0.1c0.1,0,0.2,0,0.3,0c0.5-0.1,1-0.2,1.5-0.3c1.1-0.2,2.2-0.4,3.3-0.7c0.3,0,0.7,0,1,0
		c-1.9,0.9-3.8,1.9-5.6,3c-0.6,0.3-0.4,1.4,0.3,1.4c0.9-0.1,1.8-0.3,2.6-0.5c-0.4,0.3-0.8,0.5-1.2,0.8c-0.6,0.5-0.3,1.6,0.5,1.3
		c2.2-0.5,4.3-1.2,6.4-1.9c-2.4,1-4.7,2-7,3.3c-0.7,0.4-0.3,1.5,0.5,1.3c0.1,0.3,0.3,0.5,0.6,0.5c3.5,0.2,6.6-1,9.8-2.1
		c0.2,0,0.5-0.1,0.7-0.1c3-0.4,6-0.6,9.1-0.7c-4.3,0.7-8.6,1.1-12.8,2c-0.6,0.1-0.7,1.1,0,1.2c1.2,0.2,2.3,0.4,3.5,0.5
		c-1.6,0.4-3.2,0.8-4.8,1.3c-0.9,0.3-0.6,1.6,0.3,1.4c1.2-0.2,2.5-0.4,3.7-0.6c0.6,0.2,1.2,0.3,1.8,0.3c-0.9,0.3-1.7,0.6-2.6,0.9
		c-0.8,0.3-0.6,1.5,0.3,1.3c10.3-1.7,20.5-4.1,31-5.2c0.3,0,0.4-0.2,0.5-0.4c0.6,0,1.1-0.1,1.7-0.1c6.9-0.5,13.8-0.8,20.7-0.8
		c5,0.5,10.1,1,15.1,0.7c0.9,0,1-1.4,0.1-1.4c-5.1-0.5-10.2-0.7-15.3-0.7c-0.5,0-1-0.1-1.5-0.1c-5.9-0.6-11.8-0.7-17.8-0.4
		c5.9-0.9,11.8-1.7,17.8-2.3c0.8-0.1,0.7-1.5-0.1-1.4c-5.7,0.3-11.3,0.9-16.9,1.5c-4,0.4-8.3,1-12.5,1.2c2.5-0.6,5.1-1.2,7.6-1.7
		c0.6-0.1,0.7-1.1,0-1.2c-6-1.2-12-0.2-17.9,0.9c0-0.4-0.3-0.8-0.7-0.8c-0.6-0.1-1.3-0.1-1.9-0.1c4.4-1.4,8.9-2.7,13.3-4.1
		c8.9-2.8,18.1-4.3,26.8-7.4c0.5-0.2,0.7-1.1,0-1.2c-3.9-0.7-7.4,0.6-11.2,1.1c-5.2,0.7-10.3,1.8-15.5,2.7
		c-4.6,0.8-9.3,1.7-13.9,2.6c-0.1-0.2-0.3-0.3-0.5-0.3c1.5-0.3,3-0.6,4.5-1c8.9-1.9,17.7-3.8,26.4-6.3c0.6-0.2,0.6-1.2-0.1-1.2
		c-5.8,0.1-11.5,0.9-17.1,2c4.3-1.5,8.6-2.8,13-3.9c2.3-0.6,4.6-1.2,6.9-1.6c1.9-0.3,3.9-0.5,5.6-1.4c0.5,0,1-0.1,1.5-0.1
		c2.7-0.1,5.3-0.5,7.8-1.4c0.4-0.2,0.3-0.9-0.1-1c-4.7-1-9.7,0.2-14.3,1.2c-3.3,0.1-6.6,0.8-9.8,1.6c-5.5,1.4-10.9,3.1-16.3,4.6
		c-2.7,0.7-5.4,1.5-8.1,2.4c0.1-0.1,0.2-0.2,0.2-0.3c0.3-0.4-0.1-1.1-0.6-1.1c-1.2,0-2.4,0.2-3.6,0.4c1.6-0.8,3.2-1.5,4.9-2.3
		c5.7-2.5,11.5-4.5,17.4-6.4c5.6-1.8,11.6-2.2,17.2-4.3c0.5-0.2,0.7-1,0-1.1c-5.4-1.1-10.8,1.2-16.1,2.2c-1.7,0.3-3.4,0.7-5,1.1
		c7.5-2.4,14.8-4.8,22.4-6.7c-0.5,0.2-1.1,0.4-1.6,0.6c-0.8,0.3-0.5,1.5,0.3,1.2c3.8-1.3,7.6-3,11.5-4.3c1.8-0.3,3.5-0.5,5.2-0.4
		c2.5,0.1,5.6,0.1,7.6-1.6C110.8,0.9,110.4,0.1,109.8,0.1z M43.6,19.7c-0.6,0.3-1.2,0.6-1.7,0.9c-1.5,0.6-2.9,1.2-4.3,1.9
		C39.5,21.4,41.5,20.5,43.6,19.7z M45.5,33c-1.6,0.8-3.3,1.4-5,2.1c0.3-0.2,0.6-0.3,0.9-0.5c0.7-0.4,1.5-0.8,2.3-1.2
		C44.3,33.3,44.9,33.1,45.5,33z M50.8,27.2c-0.1-0.1-0.3-0.2-0.4-0.2c-0.4-0.1-0.8-0.1-1.2-0.1c4.6-1.5,9.3-2.9,14-4.2
		c2-0.6,4-1.1,6.1-1.6c-3.4,1.1-6.9,2.2-10.3,3.5c-1.4,0.5-2.7,1-4.1,1.5C53.5,26.4,52.2,26.8,50.8,27.2z M24.1,30.3
		c1.2-0.7,2.4-1.4,3.6-2.1c0.6-0.4,1.3-0.7,1.9-1.1c-0.6,0.4-1.1,0.7-1.6,1C26.8,29,25.5,29.7,24.1,30.3z M46.3,39.5
		c-0.9,0.1-1.7,0.3-2.6,0.4c1.9-0.6,3.7-1,5.7-1.2C48.4,38.9,47.4,39.2,46.3,39.5z M66.2,41.2c-0.1,0-0.3,0-0.4,0.1
		c-2,0.3-3.9,0.6-5.9,0.9c-1.5,0.1-3,0.3-4.4,0.5c-3.8,0.5-7.7,1.2-11.5,1.1c3.6-0.6,7.2-1,10.8-1.6c1.2-0.2,2.4-0.4,3.5-0.7
		c0.9,0,1.7,0.1,2.6,0.1C62.6,41.4,64.4,41.3,66.2,41.2z M68.3,37.9c-3.2,0.7-6.3,1.4-9.5,2.1c-0.3,0-0.5,0-0.8-0.1
		c-2.2-0.3-4.3-0.3-6.5-0.2C57.1,38.7,62.7,37.5,68.3,37.9z M61.5,29.9c5-0.7,9.9-1.7,14.8-2.6c2.3-0.4,4.6-0.7,6.8-1.2
		c1.7-0.4,3.5-0.8,5.3-0.8c-7.6,2.4-15.4,3.8-23,6.1c-4.5,1.4-8.9,2.9-13.3,4.4c-2.1,0.7-4.2,1.3-6.2,1.9c-0.1,0-0.2,0-0.2,0.1
		c2.2-0.9,4.4-1.8,6.6-3c0.7-0.4,0.3-1.5-0.5-1.3c-4.7,1.1-9.3,2.8-13.9,4.3c4.2-1.9,8.7-3.3,12.6-5.8
		C54.1,31.2,57.8,30.5,61.5,29.9z M54.8,28.2c-1.6,0.3-3.1,0.6-4.7,1c0.1-0.1,0.1-0.1,0.2-0.2c1.7-0.6,3.3-1.2,5-1.8
		c6.7-1.6,13.5-3.1,20.3-3.7C68.7,25.2,61.7,26.7,54.8,28.2z M96,15.2c-2.1,0.4-4.3,0.6-6.5,0.7c0,0-0.1,0-0.1,0c-0.2,0-0.3,0-0.5,0
		C91.3,15.4,93.6,15.1,96,15.2z M48.5,24.5c-0.2,0.2-0.5,0.5-0.7,0.7c-2.3,0.8-4.5,1.5-6.8,2.3c-0.6,0.2-1.3,0.4-1.9,0.7
		c1.1-0.7,2.1-1.4,3-2.3C44.2,25.2,46.4,24.7,48.5,24.5z M66.6,13.4c3-0.7,5.9-1.3,8.9-2c2.5-0.6,5-1.3,7.6-1.3
		c-4.8,1.4-9.7,1.9-14.5,3.4c-5.7,1.8-11.3,3.8-16.8,6.1c-3.2,1.4-6.4,2.9-9.5,4.5c0,0,0,0,0,0c-0.9-0.1-1.8,0.2-2.7,0.5
		c1.1-0.5,2.1-1.1,3.2-1.6c1.2-0.7,2.5-1.3,3.7-2c2-1,4-1.9,6.1-2.7c0.4-0.1,0.4-0.5,0.3-0.8C57.3,15.9,61.9,14.5,66.6,13.4z"/>
</g>
</svg>
