<?xml version="1.0" encoding="utf-8"?>
<!-- Generator: Adobe Illustrator 18.0.0, SVG Export Plug-In . SVG Version: 6.00 Build 0)  -->
<!DOCTYPE svg PUBLIC "-//W3C//DTD SVG 1.1//EN" "http://www.w3.org/Graphics/SVG/1.1/DTD/svg11.dtd">
<svg version="1.1" id="illustration" xmlns="http://www.w3.org/2000/svg" xmlns:xlink="http://www.w3.org/1999/xlink" x="0px"
	 y="0px" viewBox="0 0 108 114" enable-background="new 0 0 108 114" xml:space="preserve">
<g>
	<path fill="#FFF200" d="M60.5,30.7c-1.8-0.1-3.6,0.2-5.3,0.8c-3.8-0.1-7.9,1.2-11,3.3c-3.6,2.3-6.2,5.7-7.7,9.6
		c-1.2,1.1-2.2,2.3-2.7,3.7c-0.6,1.6-0.5,3.2,0,4.8c-0.1,0.5-0.2,1-0.2,1.6c-0.5,5,2.4,9.6,6.3,12.5c1.6,1.2,3.3,1.9,5.1,2.3
		c0.6,0.3,1.3,0.6,2,0.8c5.3,1.7,10.2-1.1,13.6-5.3c5-3.3,7.7-9.7,7.9-16.1c0.6-1.6,1.1-3.3,1.4-5C70.9,37.2,67.5,31.1,60.5,30.7z
		 M56.6,36.4C56.6,36.4,56.6,36.4,56.6,36.4c-7.7-0.9-14.9,5.3-17.5,12.1c-0.6,1.6-1,3.4-1.2,5.2c0,0.1-0.1,0.2-0.1,0.4
		c0-0.3-0.1-0.5-0.1-0.8c-0.2-3,0.2-5.8,1.3-8.3c0,0,0.1-0.1,0.1-0.1c1.3-1.6,2.7-3.1,4.3-4.5c0.3-0.2,0.7-0.4,1-0.5
		c0.1-0.1,0-0.3-0.1-0.2c0,0-0.1,0-0.1,0c1.7-1.4,3.4-2.7,5.3-3.8C51.8,35.4,54.3,35.6,56.6,36.4z M39.3,54.5c0.2-0.7,0.4-1.4,0.6-2
		c2.2-6.3,9.5-16.6,17.5-14c5.4,1.7,7.4,8.9,7,13.8c0,0.4-0.1,0.8-0.1,1.2c-2.8,4.7-7.8,10.6-13.4,12.3c-0.1,0-0.2,0-0.3-0.1
		c1.3-1.1,2.4-2.4,3.3-3.6c2.5-3.3,4.5-6.9,5.1-11c0.4-2.6,0.3-5.9-2.2-7.3c-2.2-1.3-5.2-0.1-7.2,1c-4.9,2.6-11.4,9.9-8.4,15.9
		c0.2,0.3,0.3,0.6,0.5,0.8c-0.7-0.5-1.3-1-2-1.6C39.4,58.1,39.2,56.3,39.3,54.5z M40.3,61.4c2.1,1.8,4.6,3.3,7.1,4.5
		c-0.2,0.1-0.4,0.2-0.6,0.3c-0.2,0-0.3,0-0.5-0.1c-2.5-0.4-4.4-1.9-5.8-4C40.5,61.9,40.4,61.7,40.3,61.4z M46.3,59.7
		c-0.9-3.9,5-11.1,8.8-12.8c-1.1,2.6-2.8,5.1-4.4,7.5C50,55.3,48.1,58.1,46.3,59.7z M44.9,60.6c-0.6,0.3-1.1,0.3-1.6,0.1
		c-1.4-0.7-1.3-3.5-1-4.7c0.4-1.8,1.4-3.5,2.4-5c2-2.8,5.2-5.3,8.5-6.1c1.1-0.3,1.9-0.2,2.5,0.1C51,45.9,43,55.4,44.9,60.6z
		 M45.6,61.8c0.3,0.4,0.8,0.8,1.3,1.1c0.5,0.3,1.2-0.1,1.2-0.7c0-0.5,0-1,0-1.5c0-0.3-0.1-0.5-0.3-0.6c2.5-2.4,4.7-5.9,5.5-7.1
		c1.4-2.2,2.8-4.5,3.7-6.9c0.7,1.3,0.7,3.3,0.5,5c-0.7,4.4-3.2,8.4-6.2,11.6c-0.8,0.9-1.6,1.7-2.6,2.3c-0.3-0.1-0.6-0.2-0.9-0.3
		c-1.5-0.7-3.1-1.5-4.6-2.5C43.9,62.5,44.8,62.3,45.6,61.8z M62.2,38c-2.7-2.4-6.2-3.7-9.6-3.8c1-0.5,2-0.9,3-1.2
		c3.1,0.3,6,1.6,8.1,4.3c2,2.6,3,5.8,3.2,9.1C66.4,43.2,64.8,40.3,62.2,38z M51,33.3c-0.8,0.4-1.5,0.8-2.2,1.2
		c-2,0.5-3.9,1.3-5.5,2.6c0.2-0.2,0.5-0.4,0.7-0.6C46,35,48.5,33.8,51,33.3z M36,45.7c-0.2,0.7-0.4,1.4-0.5,2.1
		c-0.5,1.1-1,2.2-1.3,3.3C33.8,49.1,34.6,47.3,36,45.7z M35.5,58.8c-0.4-1.1-0.5-2.2-0.5-3.3c0.1,0.2,0.2,0.4,0.4,0.5
		c0.5,2.8,1.6,5.5,3.4,7.7c0.1,0.2,0.2,0.3,0.3,0.5C37.5,62.7,36.2,60.9,35.5,58.8z M63.8,59.5c0.3-0.6,0.6-1.3,0.8-1.9
		c0.1-0.3,0.2-0.5,0.3-0.8c0-0.1,0-0.1,0.1-0.2c0.4-0.6,0.7-1.3,1-2c-0.1,0.3-0.2,0.6-0.3,0.8C65.3,57,64.6,58.3,63.8,59.5z
		 M68.1,44.3c-0.7-4-2.4-7.6-5.4-10.1c-1.1-0.9-2.3-1.6-3.6-2c1.5-0.1,3,0.1,4.3,0.7C68.3,35.2,69,39.7,68.1,44.3z"/>
	<path fill="#00AEEF" d="M93.2,66.7c-2.4-5.1-5.1-9.5-9.5-13.1c-2.9-2.4-6.2-3.9-9.8-4.8c2.5-2,5.5-3.1,7.5-5.8
		c2.5-3.4,2.9-7.9,4.5-11.7c1.8-4.3,4-10-0.5-13.4c-2.8-2.1-7.3-2.5-10.6-2.6c-3.7-0.1-7.2,1-10.4,2.8c-3,1.7-5.6,4.2-8.2,6.5
		c-0.8,0.7-1.6,1.5-2.3,2.3c-0.9-2.1-2-4.2-3.2-6.2c-1.1-2.9-2.3-5.8-4-8.4C43.1,7,36.4,3.5,30.4,7.5c-0.8,0.6-1.5,1.2-2,2
		c-4.6,4.4-4.8,12.4-3.8,18.2c1.2,6.9,5,14.9,11.2,18.9c-2.5,0.8-5.3,0.1-8,0c-1.3,0-3,0.9-4.2,1.4c-2.1,0.9-4,2.1-5.8,3.5
		c-2.7,2.1-4.6,4.8-7,7.2c-1.6,1.6-3.3,3.4-4.1,5.5c-0.7,1.8-0.4,3.2,0.3,4.3c0,0.9,0.1,1.9,0.4,2.8c1.9,5.1,10.8,2.7,14.4,1.8
		c5.9-1.5,11.5-4,17.4-5.6c-0.1,0.5-0.9,1.2-1.2,1.5c-0.3,0.2-0.5,0.4-0.7,0.6c0-0.3-0.3-0.7-0.7-0.5c-4.4,1.2-5.5,5.8-5.5,10.3
		c-1.3,3.6-2.1,7.4-2.3,11.2c-0.2,3.6,1.4,7.7,2.8,11c1.3,3.1,3.3,6.4,6.6,7.6c7.5,2.6,9.3-8.1,9.9-12.9c0.4-3.3,0.5-6.6,0.9-9.9
		c0.5-1.5,1-3.1,1.4-4.7c0.9,1,1.8,1.9,2.7,2.8c4.2,4.1,9,7.6,14.2,10.4c8.7,4.6,19.3,7.2,27.5,0.3C103.3,88.2,96.8,74.5,93.2,66.7z
		 M46.8,15.2c0.1,0.1,0.1,0.3,0.2,0.4c-0.1-0.1-0.2-0.3-0.3-0.4c-2.5-3.2-6.6-7.6-11-8.3C40.3,6.8,44.5,11.1,46.8,15.2z M22,50.3
		c1.6-1,3.4-1.7,5.2-2.3c1.1-0.3,2.3-0.2,3.5,0c-5.1,0-11,4.2-14.2,6.8c-0.6,0.5-1.2,1-1.8,1.6C16.7,54,19.2,52,22,50.3z M25.3,70.8
		c-2.9,0.9-5.9,1.7-8.9,2c-2.1,0.3-5.1,0.6-6.8-0.9c-0.6-0.5-0.9-1.1-1-1.9c1.9,1.3,4.5,2,6.7,2.1c4.9,0.2,9.5-1.3,14.2-2.7
		C28.1,70,26.7,70.4,25.3,70.8z M36.4,70.6c-0.3,0.4-0.7,0.7-1,1.1c-1,1.2-1.9,2.6-2.6,4C33.3,73.4,34.4,71.5,36.4,70.6z M33,101.7
		c-1.4-3-3.2-7.2-3.1-10.6c0.1-2.9,0.5-6.1,1.3-9.2c0.1,1.4,0.3,2.8,0.4,3.9c1,7.3,2.9,15,6.1,21.6c0.1,0.1,0.1,0.2,0.2,0.2
		C35.6,106.8,34,103.9,33,101.7z M47.3,91.3c-0.4,4.8-0.2,16.4-7,17c-0.8,0.1-1.6-0.1-2.3-0.4c0.3,0.1,0.7,0,0.9-0.3
		c3.1-5.4,6.1-11,8.4-16.8C47.3,90.9,47.3,91.1,47.3,91.3z M49.6,78.6c0-2.7,0-5.4-0.1-8.1C50.2,73.1,50.1,75.9,49.6,78.6z
		 M94.4,93.8C87,101,75.9,97.7,68,93.7c-4.5-2.3-9.1-5.3-12.7-8.8c-1.4-1.4-3.1-2.9-4.6-4.6c1-4.7,1-9.7-1.3-13.9
		c-0.3-0.6-1.2-0.3-1.2,0.3c0,2.8,0,5.5,0,8.2c0,0.4,0,0.9,0,1.4c-0.4-1.2-0.7-2.4-0.5-3.7c0.1-0.5-0.8-0.6-0.9-0.1
		c-0.4,2.3,0.3,4.5,1.6,6.4c0.1,1.5,0.1,3.1-0.2,4.4c-0.2,0.9-0.3,1.7-0.4,2.6c-0.1,0.4-0.3,0.8-0.4,1.1c-2.3,6.5-5.5,12.6-8.9,18.6
		c-2.4-5.3-3.9-11.3-4.9-16.9c-0.5-2.5-1.2-6.7-1-10.5c1.6-4,4.1-7.5,7.5-9.8c0.1-0.1,0.1-0.2,0.1-0.3c0-0.3-0.1-0.5-0.2-0.7
		c0,0,0.1,0,0.1,0c0.8-0.2,0.6-1.4-0.2-1.4C33,66.2,26.7,69.1,20,70.4C16.3,71.1,12.5,71,9.3,69c-0.3-0.2-0.5-0.3-0.7-0.5
		c0.2-1,0.5-2.1,0.8-2.8c1.2-3.2,3.9-5.9,6.4-8.2c4.5-4.2,13-10.5,19.2-6.7c0.5,0.3,1.2-0.5,0.7-0.9c-1-0.9-2.2-1.4-3.4-1.7
		c1.6,0.1,3.1-0.2,4.5-0.9c0.4,0.2,0.7,0.4,1.1,0.6c0.7,0.3,1.4-0.5,0.8-1.1c-0.2-0.2-0.2-0.4-0.3-0.7c0,0,0,0,0.1-0.1
		c0.2-0.2,0.2-0.4,0-0.6c0.1-0.4,0.3-0.8,0.3-1.2c0.1-0.7-1-0.8-1.2-0.2c-0.2,0.8-0.4,1.3-0.6,1.8c-6-3.5-9.4-10.8-10.9-17.3
		c-0.8-3.6-1.2-8.5,0-12.6c-0.3,3.1,0.2,6.5,0.7,9.1c1.2,6,3.6,13.6,8.1,18c0.4,0.4,0.9-0.2,0.6-0.6c-3.9-4.3-5.9-10.6-7.2-16.1
		c-1.1-4.6-2.1-11.5,0.8-15.8c0.8-0.8,1.8-1.5,3-2c5.7-2.2,11.4,4.8,14.3,8.7c1.1,1.5,2.3,3.2,3.3,4.9c0.8,2.2,1.6,4.5,2.6,6.7
		c-0.1,0.1-0.1,0.3-0.2,0.4c0-0.2,0-0.4,0-0.6c0,0,0,0,0,0c0,0.4-0.1,0.7-0.1,1.1C52,30,52,30.1,52,30.1c0,0.2,0,0.3-0.1,0.5
		c0,0.3,0.4,0.5,0.5,0.1c0.1-0.4,0.2-0.7,0.3-1c0.4,1,0.9,1.9,1.5,2.9c0.4,0.7,1.3,0.2,1.2-0.5c-0.3-1.5-0.8-3-1.3-4.4
		c1.1-1.2,2.5-2.3,3.6-3.3c2.3-1.9,4.5-3.9,7.1-5.4c3-1.8,6.4-2.6,9.9-2.6c3.4,0,8.1,0.7,10.7,3.1c4.1,3.7-0.8,10.1-1.8,14
		c-0.9,3.7-2,8.8-5.4,11.1c-2.1,1.3-4.1,2.4-5.9,3.9c-0.8-0.2-1.6-0.3-2.5-0.4c0-0.5,0-0.9-0.1-1.4c-0.1-0.8-1.2-0.8-1.2,0
		c-0.1,0.7-0.1,1.3-0.1,2c0,0.4,0.3,0.7,0.7,0.7c0.7,0.1,1.3,0.2,2,0.3c-0.2,0.2-0.4,0.4-0.5,0.7c-0.3,0.4,0.1,1,0.5,0.9
		c1.1-0.1,1.5-0.4,1.5-1.3c3.4,0.8,6.6,2.2,9.5,4.3c4.1,3,6.8,7.2,9,11.7c2.3,4.6,4.3,9.5,5.5,14.5C97.9,85.4,98.1,90.1,94.4,93.8z"
		/>
</g>
</svg>
